<!--?xml version="1.0" encoding="utf-8"?-->
<!-- Generator: Adobe Illustrator 18.1.1, SVG Export Plug-In . SVG Version: 6.00 Build 0)  -->

<svg version="1.1" id="_x31_0" xmlns="http://www.w3.org/2000/svg" xmlns:xlink="http://www.w3.org/1999/xlink" x="0px" y="0px" viewBox="0 0 512 512" style="width: 48px; height: 48px;" xml:space="preserve">
<style type="text/css">
	.st0{fill:#374149;}
</style>
<g>
	<path class="st0" d="M44.762,467.261c-2.527-2.527-4.558-5.019-6.281-7.578c-0.195-0.328-0.485-0.656-0.66-0.988l-0.028,0.035
		c-0.031-0.047-0.07-0.09-0.098-0.137L1.251,503.398c-3.997,4.856,2.457,11.309,7.312,7.313l34.27-27.867l10.387-8.383
		c-0.016-0.008-0.028-0.019-0.043-0.027l0.129-0.106C50.419,472.421,47.59,470.089,44.762,467.261z" style="fill: rgb(38, 38, 38);"></path>
	<path class="st0" d="M114.098,359.292c-0.16,0.141-0.355,0.285-0.511,0.426l0.008,0.008c-0.039,0.035-0.086,0.07-0.122,0.106
		l38.661,38.656c7.25-7.621,14.297-18.828,22.148-27.012l-33.797-33.797C132.504,345.339,121.703,352.23,114.098,359.292z" style="fill: rgb(38, 38, 38);"></path>
	<path class="st0" d="M72.11,399.718c-21.141,21.141-25.687,34.294-22.434,44.192c1.355,4.175,3.996,7.679,7.379,11.062
		c3.316,3.316,6.882,6.019,11,7.312c9.894,3.258,22.984-1.23,44.187-22.434c3.75-3.75,11.309-11.554,21.821-22.554l-39.399-39.394
		C83.664,388.409,75.859,395.968,72.11,399.718z" style="fill: rgb(38, 38, 38);"></path>
	<path class="st0" d="M293.884,237.483c15.602-16.641,30.878-32.719,45.762-47.758l66.558,7.359l105.762-67.683
		c0,0-13.442-92.321-25.282-104.161C474.927,13.4,382.607,0.041,382.607,0.041l-67.762,105.68l7.359,66.558
		c-14.965,14.813-30.95,30.016-47.535,45.516c-0.317,0.293-0.594,0.555-0.914,0.852c0,0,0.004,0.004,0.008,0.007
		c-0.039,0.035-0.078,0.074-0.117,0.11C280.286,225.003,287.083,231.163,293.884,237.483z M398.447,43.799
		c19.39,3.27,46.489,9.973,53.27,11.676c0.859,0.234,1.352,0.383,1.555,0.461l-47.626,47.626l-36.562,36.481
		c-3.118,3.199-8.558,1.277-9.039-3.203l-3.117-28.078L398.447,43.799z" style="fill: rgb(38, 38, 38);"></path>
	<path class="st0" d="M216.879,271.448l-0.007-0.008c-0.035-0.035-0.07-0.078-0.11-0.117c-17.406,16.09-34.957,32.41-52.23,48.878
		c-0.469,0.442-0.946,0.883-1.414,1.329v0.003c-0.039,0.039-0.078,0.074-0.117,0.11l27.281,27.282
		c16.645-17.359,33.122-35.122,49.364-52.719c-0.242-0.32-0.563-0.562-0.801-0.882C231.443,287.206,224.044,279.249,216.879,271.448
		z" style="fill: rgb(38, 38, 38);"></path>
	<path class="st0" d="M510.751,503.398l-27.473-33.774l-8.836-10.945c-0.007,0.015-0.019,0.027-0.031,0.042l-0.102-0.129
		c-1.847,2.95-4.179,5.778-7.07,8.668c-2.477,2.477-4.958,4.512-7.477,6.274c-0.324,0.203-0.637,0.481-0.965,0.668l0.031,0.027
		c-0.043,0.027-0.086,0.07-0.133,0.098l44.742,36.383C508.295,514.707,514.747,508.254,510.751,503.398z" style="fill: rgb(38, 38, 38);"></path>
	<path class="st0" d="M398.419,359.948v-0.004l0.114-0.113c-7.622-7.254-18.829-14.297-27.016-22.153l-33.797,33.797
		c7.855,8.184,14.902,19.391,22.152,27.012l37.653-37.649L398.419,359.948z" style="fill: rgb(38, 38, 38);"></path>
	<path class="st0" d="M439.892,399.718c-3.746-3.75-11.555-11.309-22.555-21.816l-39.394,39.394
		c10.508,11,18.07,18.805,21.817,22.554c21.203,21.203,34.293,25.692,44.191,22.434c4.118-1.293,7.68-3.996,11-7.312
		c3.379-3.383,6.023-6.887,7.375-11.062C465.583,434.011,461.037,420.859,439.892,399.718z" style="fill: rgb(38, 38, 38);"></path>
	<path class="st0" d="M348.857,321.761c0,0,0,0-0.004-0.004l0.113-0.114c-54.238-51.758-111.758-102.398-159.199-149.364
		l7.359-66.558L129.364,0.041c0,0-92.321,13.359-104.082,25.199C13.442,37.08,0,129.401,0,129.401l105.762,67.683l66.558-7.359
		c46.965,47.438,97.606,104.958,149.364,159.2l26.539-26.539L348.857,321.761z M151.923,136.839
		c-0.477,4.48-5.922,6.402-9.039,3.203l-36.562-36.481L74.653,71.889L58.735,55.858c0.973-0.25,32.809-8.356,54.79-12.059
		l41.523,64.962L151.923,136.839z" style="fill: rgb(38, 38, 38);"></path>
</g>
</svg>
