<!--?xml version="1.0" encoding="utf-8"?-->
<!-- Generator: Adobe Illustrator 18.1.1, SVG Export Plug-In . SVG Version: 6.00 Build 0)  -->

<svg version="1.1" id="_x31_0" xmlns="http://www.w3.org/2000/svg" xmlns:xlink="http://www.w3.org/1999/xlink" x="0px" y="0px" viewBox="0 0 512 512" style="width: 128px; height: 128px;" xml:space="preserve">
<style type="text/css">
	.st0{fill:#374149;}
</style>
<g>
	<path class="st0" d="M422.09,162.002c-1.754-2.816-3.691-5.5-5.566-8.234c-1.539-2.254-2.961-4.57-4.586-6.781
		c-0.008,0.007-0.016,0.019-0.023,0.027c-0.035-0.043-0.063-0.094-0.094-0.137c-7.422,7.922-14.984,16.125-22.476,24.187
		c-1.996,2.211-4.137,4.566-6.348,6.992c20.262,29.825,32.106,65.782,32.106,104.524c0,102.957-83.832,186.789-186.789,186.789
		c-103.024,0-186.79-83.832-186.79-186.789c0-103.024,83.766-186.786,186.79-186.786c39.882,0,76.843,12.555,107.164,33.961
		c2.285-2.14,4.496-4.14,6.566-6.066c7.762-7.171,15.312-14.14,22.598-20.945c0.586-0.531,1.195-1.094,1.777-1.618
		c-0.007-0.004-0.015-0.007-0.023-0.015c0.039-0.035,0.082-0.074,0.122-0.11c-38.387-29.324-86.333-46.734-138.203-46.734
		C102.383,54.268,0,156.654,0,282.58c0,125.93,102.383,228.316,228.313,228.316S456.625,408.51,456.625,282.58
		c0-43.344-12.234-83.828-33.266-118.371C422.918,163.483,422.539,162.724,422.09,162.002z" style="fill: rgb(38, 38, 38);"></path>
	<path class="st0" d="M259.992,458.74c0.356-0.07,0.786-0.145,1.141-0.215c1.715-0.285,3.426-0.644,5.137-1
		c0.355-0.07,0.785-0.214,1.214-0.285c2.141-0.5,4.282-1,6.422-1.57c0.5-0.141,0.926-0.211,1.426-0.355
		c2.355-0.641,4.707-1.356,6.992-2.07c2.496-0.786,4.996-1.641,7.418-2.566h0.074c1.64-0.641,3.281-1.215,4.851-1.926
		c0.285-0.074,0.57-0.215,0.855-0.36c0.43-0.07,0.786-0.214,1.141-0.355c0-0.07,0-0.07,0-0.07c0.286-0.074,0.5-0.214,0.715-0.285
		c0.214-0.074,0.355-0.145,0.57-0.215c0.214-0.07,0.426-0.145,0.64-0.285c1.645-0.715,3.286-1.426,4.996-2.211
		c0.426-0.215,0.926-0.43,1.426-0.645c1.57-0.785,3.14-1.496,4.637-2.351c0.359-0.145,0.644-0.289,0.93-0.5
		c0.355-0.145,0.71-0.359,1.07-0.5c0.07-0.07,0.14-0.07,0.214-0.145c1.996-1.07,3.922-2.141,5.922-3.281
		c18.051-10.489,34.176-24.043,47.586-39.954c1-1.285,2.07-2.57,3.07-3.855c2.566-3.211,4.992-6.492,7.277-9.844
		c1.141-1.57,2.282-3.21,3.352-4.851c2.641-4.141,5.137-8.348,7.422-12.703c0.141-0.282,0.215-0.57,0.356-0.782
		c0.07-0.144,0.144-0.214,0.214-0.359c0.141-0.285,0.286-0.57,0.43-0.855c0.426-0.856,0.856-1.711,1.282-2.566
		c1.144-2.286,2.21-4.641,3.21-6.922c0.43-0.93,0.856-1.785,1.215-2.64c0-0.07,0-0.07,0.07-0.215c0.07-0.141,0.145-0.355,0.214-0.57
		c0.215-0.355,0.356-0.785,0.5-1.214c0.07-0.141,0.141-0.211,0.141-0.356c0.856-1.996,1.641-3.996,2.356-6.062
		c6.992-19.05,10.843-39.742,10.843-61.218c0-21.473-3.851-42.164-10.843-61.215c-0.926-2.711-1.997-5.351-3.141-7.992
		c0-0.07-0.07-0.141-0.07-0.211c0-0.074-0.07-0.144-0.07-0.144c-1.57-3.711-3.211-7.278-4.996-10.844
		c-0.286-0.43-0.5-0.93-0.711-1.355c-0.074-0.145-0.144-0.29-0.214-0.43c-1.786-3.496-3.782-6.922-5.782-10.202
		c-0.785-1.286-1.496-2.641-2.351-3.852c-0.074-0.214-0.215-0.359-0.36-0.5c-0.363-0.547-0.726-1.09-1.09-1.633l-0.074-0.187
		c-0.007,0.011-0.019,0.023-0.027,0.031c-0.031-0.047-0.062-0.094-0.094-0.137c-6.562,7.207-13.91,15.054-21.402,22.973
		c-4.496,5.137-13.699,15.984-22.617,26.328c7.062,14.984,11.058,31.75,11.058,49.371c0,64.07-52.156,116.226-116.226,116.226
		S112.086,346.651,112.086,282.58s52.157-116.223,116.227-116.223c18.836,0,36.671,4.493,52.37,12.555
		c4.922-4.207,10.059-8.633,14.696-12.555l14.058-24.402c2.637,1.497,5.207,3.066,7.703,4.782
		c3.906-3.649,7.714-7.183,11.394-10.547c0.328-0.285,0.672-0.605,0.996-0.882c-0.008-0.008-0.015-0.012-0.023-0.02
		c0.039-0.034,0.082-0.074,0.121-0.109c-1.679-1.211-3.446-2.211-5.156-3.324c-0.414-0.27-0.836-0.539-1.254-0.809
		c-1.812-1.153-3.57-2.422-5.434-3.504c-11.488-6.633-23.762-11.985-36.602-15.981c-0.714-0.214-1.355-0.355-2-0.57
		c-2.496-0.785-5.066-1.426-7.633-2.07c-0.214-0.07-0.355-0.141-0.5-0.141c-0.43-0.074-0.785-0.215-1.14-0.286
		c-2.07-0.5-4.211-0.93-6.278-1.355c-1.215-0.215-2.43-0.5-3.711-0.715c-0.074,0-0.074-0.07-0.144-0.07
		c-0.141,0-0.286,0-0.356-0.074v0.074c-10.133-1.856-20.476-2.786-31.109-2.786c-10.63,0-20.977,0.93-31.106,2.786v-0.074
		c-0.786,0.144-1.641,0.359-2.426,0.5c-0.5,0.07-1,0.214-1.5,0.285c-0.286,0.074-0.57,0.145-0.926,0.215
		c-1.855,0.355-3.781,0.785-5.637,1.214c-0.359,0.07-0.714,0.211-1.14,0.286c-0.145,0-0.36,0.07-0.5,0.141
		c-2.57,0.644-5.137,1.285-7.637,2.07c-0.641,0.215-1.356,0.356-1.996,0.57c-12.844,3.996-25.118,9.348-36.602,15.981
		c-18.126,10.562-34.176,24.117-47.59,40.027c-2.281,2.711-4.422,5.566-6.562,8.418c-0.43,0.5-0.785,1.07-1.214,1.57
		c-1.926,2.711-3.852,5.422-5.637,8.207c-0.141,0.211-0.286,0.356-0.356,0.57c-0.855,1.282-1.64,2.641-2.426,3.922
		c-1.996,3.286-3.926,6.637-5.707,10.063c-0.07,0.21-0.144,0.355-0.214,0.5c-0.286,0.426-0.5,0.926-0.715,1.426
		c-1.781,3.496-3.422,7.062-4.992,10.774c-0.07,0-0.07,0.07-0.07,0.144c-0.074,0.07-0.074,0.141-0.074,0.211
		c-1.14,2.641-2.21,5.281-3.21,7.992c-6.918,19.051-10.774,39.742-10.774,61.215c0,21.476,3.855,42.168,10.774,61.218
		c0.785,2.066,1.57,4.066,2.426,6.062c0,0.145,0.074,0.286,0.145,0.356c0.14,0.43,0.285,0.859,0.5,1.214
		c0.07,0.215,0.14,0.43,0.214,0.57c0,0.145,0,0.145,0.07,0.215c0.355,0.93,0.786,1.785,1.211,2.64c1,2.356,2.07,4.637,3.21,6.848
		c0.43,0.93,0.786,1.785,1.286,2.641c0.145,0.285,0.285,0.57,0.426,0.855c0.074,0.145,0.145,0.215,0.145,0.359
		c0.144,0.211,0.285,0.5,0.43,0.782c2.281,4.355,4.778,8.562,7.418,12.703c1.07,1.641,2.211,3.281,3.356,4.922
		c2.281,3.282,4.706,6.562,7.206,9.703c1.066,1.285,2.066,2.641,3.137,3.926c13.414,15.91,29.465,29.465,47.59,39.954
		c1.926,1.14,3.922,2.21,5.922,3.281c0.07,0.074,0.141,0.074,0.215,0.145c0.355,0.141,0.71,0.355,1.07,0.5
		c0.286,0.211,0.57,0.355,0.926,0.5c1.5,0.855,3.07,1.566,4.637,2.351c0.5,0.215,1,0.43,1.43,0.645
		c1.64,0.785,3.351,1.496,4.992,2.211c0.215,0.14,0.43,0.214,0.645,0.285c0.21,0.07,0.355,0.141,0.57,0.215
		c0.21,0.07,0.426,0.21,0.64,0.285c0.07,0,0.07,0,0.07,0.07c0.359,0.141,0.786,0.285,1.145,0.43c0.285,0.07,0.496,0.211,0.785,0.286
		c1.641,0.71,3.282,1.285,4.922,1.926h0.07c2.426,0.926,4.851,1.781,7.347,2.566c2.355,0.714,4.711,1.43,7.066,2.07
		c0.496,0.144,0.926,0.214,1.426,0.355c2.141,0.57,4.282,1.07,6.422,1.57c0.426,0.07,0.855,0.214,1.21,0.285
		c1.715,0.356,3.426,0.715,5.137,1c0.359,0.07,0.786,0.145,1.141,0.215c0.145,0.07,0.359,0.07,0.574,0.141v-0.07
		c10.129,1.855,20.476,2.781,31.106,2.781c10.633,0,20.976-0.926,31.109-2.781v0.07C259.637,458.811,259.778,458.811,259.992,458.74
		z M353.102,237.131l27.824-10.129c0,0,0,0,0,0.07c6.352,17.266,9.778,36.031,9.778,55.508c0,19.179-3.355,37.656-9.52,54.703
		c-0.098,0.266-0.164,0.538-0.262,0.804l-19.664-7.109l-8.156-3.02c5.207-14.129,8.062-29.469,8.062-45.378
		C361.164,266.67,358.309,251.33,353.102,237.131z M329.984,367.912l22.618,19.05c-11.867,14.184-26.238,26.262-42.398,35.754
		c-0.266,0.156-0.504,0.336-0.77,0.484l-14.766-25.606C308.152,389.819,320.066,379.756,329.984,367.912z M228.313,120.193
		c9.418,0,18.625,0.844,27.566,2.348c0.206,0.035,0.41,0.046,0.617,0.086l-5.137,29.102c-7.492-1.285-15.195-1.996-23.046-1.996
		c-7.848,0-15.555,0.711-23.118,1.996l-5.062-29.109C209.266,121.049,218.68,120.193,228.313,120.193z M103.062,326.717
		c0.145,0.426,0.242,0.859,0.39,1.281c0,0.008,0,0.031,0,0.031l-27.754,10.062c-6.348-17.27-9.774-36.031-9.774-55.511
		c0-19.477,3.426-38.242,9.774-55.508c0-0.07,0-0.07,0-0.07l27.754,10.129c-5.136,14.199-7.988,29.539-7.988,45.45
		C95.465,298.037,98.199,312.928,103.062,326.717z M147.121,141.955c0.07,0,0.07,0,0.07,0l14.77,25.614
		c-13.484,7.778-25.402,17.836-35.39,29.68l-22.618-19.047C116.082,163.787,130.711,151.514,147.121,141.955z M147.121,423.209
		c-16.156-9.414-30.55-21.477-42.57-35.594c-0.187-0.227-0.402-0.43-0.59-0.657l22.61-19.046
		c9.988,11.843,21.906,21.906,35.39,29.683L147.121,423.209z M228.313,444.971c-9.434,0-18.657-0.844-27.614-2.355
		c-0.187-0.031-0.379-0.043-0.566-0.078l5.062-29.102c7.562,1.282,15.27,1.996,23.118,1.996c7.851,0,15.554-0.714,23.046-1.996
		l5.137,29.11C247.363,444.112,237.946,444.971,228.313,444.971z" style="fill: rgb(38, 38, 38);"></path>
	<path class="st0" d="M228.313,174.631c-59.504,0-107.95,48.446-107.95,107.95s48.446,107.949,107.95,107.949
		s107.949-48.445,107.949-107.949c0-13.043-2.453-25.45-6.711-37.008c-0.644-1.805-1.206-3.633-1.941-5.41
		c-0.02,0.024-0.039,0.043-0.059,0.066c-0.023-0.054-0.038-0.113-0.062-0.172c-4.926,5.782-9.418,10.989-12.273,14.27
		c2.855,8.922,4.426,18.41,4.426,28.254c0,10.847-1.894,21.203-5.375,30.871c-0.047,0.125-0.078,0.254-0.125,0.378l-53.008-19.262
		v-0.07c0.137-0.461,0.274-0.945,0.414-1.418c0.102-0.23,0.156-0.485,0.328-0.672l-0.18,0.145c0.023-0.094,0.062-0.172,0.078-0.27
		l-9.914,8.062c-4.926,3.996-11.133,6.281-17.48,6.281c-4.141,0-8.062-0.93-11.844-2.714c-2-0.926-3.855-2.066-5.496-3.422h-1.711
		l-1.5-2.926c-1.851-2.07-3.422-4.426-4.637-6.992c-4.637-9.774-3.21-20.977,3.641-29.324l6.074-7.493l4.652-5.55l-0.16,0.012
		l0.133-0.168l-1.281,0.214l-9.774-55.582c5.133-0.996,10.414-1.426,15.836-1.426c5.378,0,10.613,0.43,15.71,1.41
		c0.043,0.008,0.086,0.012,0.129,0.02l-2.718,15.515l-2.778,14.953c0.066-0.152,0.164-0.281,0.234-0.434l-0.09,0.5
		c4.066-9.062,10.848-16.554,16.27-22.046c0.718-0.653,7.637-6.664,16.418-14.309l2.348-1.957c-0.023-0.012-0.047-0.016-0.066-0.027
		c0.047-0.039,0.09-0.078,0.137-0.118C260.062,178.272,244.582,174.631,228.313,174.631z M142.484,313.83
		c-3.57-9.774-5.496-20.262-5.496-31.25c0-10.989,1.926-21.473,5.496-31.25l53.008,19.336c-1.281,3.711-2.066,7.707-2.066,11.914
		c0,4.21,0.786,8.206,2.066,11.918L142.484,313.83z M254.996,304.987l43.215,36.222l0.023,0.019
		c-6.758,8.027-14.848,14.859-23.973,20.18c-0.125,0.07-0.234,0.152-0.359,0.222l-28.18-48.797
		C249.289,310.764,252.359,308.123,254.996,304.987z M222.25,316.971c1.926,0.355,3.996,0.5,6.062,0.5c2.07,0,4.14-0.145,6.066-0.5
		l9.773,55.508c-5.136,1-10.418,1.426-15.839,1.426c-5.375,0-10.61-0.426-15.703-1.406c-0.043-0.008-0.09-0.011-0.133-0.019
		L222.25,316.971z M210.906,312.834l-28.184,48.801c-9.14-5.274-17.226-12.082-24.015-20.062c-0.102-0.121-0.211-0.226-0.309-0.348
		l43.23-36.238C204.199,308.123,207.336,310.764,210.906,312.834z M201.629,260.178l-43.214-36.226l-0.024-0.016
		c6.852-8.137,15.055-15.054,24.332-20.406l28.184,48.871C207.336,254.471,204.199,257.037,201.629,260.178z" style="fill: rgb(38, 38, 38);"></path>
	<path class="st0" d="M261.973,258.487c-1.363-0.906-2.68-1.997-4.02-3.333c-1.386-1.386-2.461-2.702-3.281-4.011l-1.942-3.098
		l-0.582-1.024l-0.035,0.039l-0.09-0.14l-22.637,27.828c-1.574,1.922-1.91,4.492-0.87,6.695c1.074,2.258,3.343,3.718,5.781,3.718
		c1.465,0,2.852-0.515,4.016-1.469l21.277-17.297l6.344-5.094l-0.043-0.031l0.133-0.106L261.973,258.487z" style="fill: rgb(38, 38, 38);"></path>
	<path class="st0" d="M306.867,183.084c-2.106,2.019-4.718,4.011-7.246,5.941c-2.496,1.91-5.082,3.879-7.206,5.902l-2.469,2.356
		l-0.062,0.05v0.004l-0.118,0.114l25.859,25.855l2.524-2.649c2.019-2.117,3.984-4.695,5.886-7.191
		c1.938-2.527,3.93-5.141,5.949-7.246l2.426-2.523l-23.024-23.035L306.867,183.084z" style="fill: rgb(38, 38, 38);"></path>
	<path class="st0" d="M273.785,256.416c6.402,0,13.699-4.309,22.958-13.559c2.015-2.015,6.074-6.21,11.726-12.125l2.41-2.523
		l-26.008-26.016l-2.523,2.41c-5.918,5.652-10.118,9.722-12.13,11.734c-11.374,11.371-15.343,19.789-12.878,27.25
		c0.824,2.551,2.355,4.891,4.824,7.36c2.477,2.48,4.813,4.004,7.293,4.777C270.851,256.186,272.301,256.416,273.785,256.416z" style="fill: rgb(38, 38, 38);"></path>
	<path class="st0" d="M356.461,139.518c-12.484,11.488-25.113,23.187-37.527,34.961l-2.492,2.426l-0.035,0.031h0.004l-0.118,0.114
		l19.762,19.762l2.5-2.641c11.774-12.344,23.473-25.043,34.962-37.457c15.266-16.551,29.679-32.25,43.734-46.52l35.175,3.926
		L512,75.948l-0.355-2.286c-1.715-11.843-7.848-51.082-14.485-57.718c-6.637-6.637-45.875-12.77-57.718-14.485l-2.286-0.355
		l-38.172,59.574l3.856,35.176C388.641,109.838,373.016,124.248,356.461,139.518z M447.359,28.428
		c10.45,1.742,25,5.325,28.566,6.215c0.458,0.133,0.66,0.211,0.774,0.262l-25.488,25.488l-19.547,19.481
		c-1.641,1.711-4.566,0.711-4.851-1.715l-1.641-14.98L447.359,28.428z" style="fill: rgb(38, 38, 38);"></path>
</g>
</svg>
