<!--?xml version="1.0" encoding="utf-8"?-->
<!-- Generator: Adobe Illustrator 18.1.1, SVG Export Plug-In . SVG Version: 6.00 Build 0)  -->

<svg version="1.1" id="_x31_0" xmlns="http://www.w3.org/2000/svg" xmlns:xlink="http://www.w3.org/1999/xlink" x="0px" y="0px" viewBox="0 0 512 512" style="width: 48px; height: 48px; opacity: 1;" xml:space="preserve">
<style type="text/css">
	.st0{fill:#374149;}
</style>
<g>
	<path class="st0" d="M44.76,467.259c-2.519-2.519-4.546-5.008-6.269-7.558c-0.2-0.332-0.493-0.668-0.672-1.004l-0.028,0.031
		c-0.031-0.043-0.07-0.086-0.098-0.133L1.249,503.4c-3.996,4.855,2.457,11.309,7.312,7.313l34.371-27.95l10.282-8.301
		c-0.012-0.008-0.023-0.019-0.039-0.031l0.129-0.102C50.417,472.423,47.589,470.087,44.76,467.259z" style="fill: rgb(38, 38, 38);"></path>
	<path class="st0" d="M114.085,359.301c-0.156,0.137-0.348,0.282-0.5,0.418l0.008,0.008c-0.035,0.035-0.086,0.07-0.122,0.106
		l38.657,38.656c7.258-7.621,14.305-18.828,22.156-27.016l-33.797-33.793C132.499,345.341,121.686,352.235,114.085,359.301z" style="fill: rgb(38, 38, 38);"></path>
	<path class="st0" d="M72.108,399.72c-21.141,21.141-25.687,34.293-22.434,44.188c1.355,4.179,3.996,7.683,7.379,11.062
		c3.316,3.32,6.882,6.023,11,7.312c9.894,3.258,22.984-1.226,44.187-22.43c3.75-3.75,11.309-11.554,21.821-22.558L94.666,377.9
		C83.663,388.411,75.858,395.97,72.108,399.72z" style="fill: rgb(38, 38, 38);"></path>
	<path class="st0" d="M486.718,25.238C474.961,13.398,382.64,0.039,382.64,0.039l-67.762,105.68l7.363,66.566
		c-47.215,46.734-104.41,97.118-158.426,148.622c-0.218,0.207-0.445,0.418-0.664,0.625v0.004c-0.039,0.035-0.078,0.074-0.117,0.11
		l27.281,27.278c51.762-54.238,102.403-111.758,149.364-159.2l66.562,7.359L512,129.399C512,129.399,498.558,37.082,486.718,25.238z
		 M405.679,103.559l-36.558,36.481c-3.122,3.199-8.562,1.281-9.043-3.2l-3.117-28.078l41.519-64.962
		c19.387,3.266,46.473,9.965,53.262,11.672c0.863,0.234,1.363,0.383,1.562,0.461L405.679,103.559z" style="fill: rgb(38, 38, 38);"></path>
</g>
</svg>
