<?xml version="1.0" standalone="no"?>
<svg xmlns="http://www.w3.org/2000/svg" viewBox="0 0 1440 320">
  <defs>
    <linearGradient id="a" x1="50%" x2="50%" y1="-10.959%" y2="100%">
      <stop stop-color="#cc0000" stop-opacity="1" offset="0%"/>
      <stop stop-color="#fff" offset="100%"/>
    </linearGradient>
  </defs>
  <path fill="url(#a)" fill-opacity="1" d="M0,192L40,197.3C80,203,160,213,240,197.3C320,181,400,139,480,149.3C560,160,640,224,720,224C800,224,880,160,960,154.7C1040,149,1120,203,1200,208C1280,213,1360,171,1400,149.3L1440,128L1440,320L1400,320C1360,320,1280,320,1200,320C1120,320,1040,320,960,320C880,320,800,320,720,320C640,320,560,320,480,320C400,320,320,320,240,320C160,320,80,320,40,320L0,320Z">
  </path>
</svg>